<svg width="93" height="40" viewBox="0 0 93 40" fill="none" xmlns="http://www.w3.org/2000/svg">
<path d="M10.1857 28.7032C10.1962 33.1966 10.3709 35.7896 10.7058 36.4105C11.3018 37.5161 13.4346 37.908 14.6526 38.0432L14.7016 38.0486C15.1923 38.1032 16.3414 38.2306 16.3414 38.6026C16.3414 38.6882 16.3321 38.7349 16.3263 38.756C16.2874 38.7726 16.1808 38.7985 15.8938 38.7985C15.8101 38.7985 15.7228 38.7967 15.6326 38.7949C15.5293 38.7929 15.4224 38.7908 15.313 38.7908H9.7574H4.12301C4.01364 38.7908 3.90675 38.793 3.80329 38.7949C3.71321 38.7968 3.62594 38.7985 3.54219 38.7985C3.25547 38.7985 3.14889 38.7727 3.10998 38.756C3.10396 38.7349 3.09483 38.6882 3.09483 38.6024C3.09483 38.2304 4.24381 38.103 4.73455 38.0486L4.78322 38.0432C6.00132 37.908 8.13397 37.5161 8.73025 36.4103C8.85405 36.1807 9.23075 35.482 9.29789 28.6777C9.31366 27.0679 9.30578 25.3715 9.2762 24.0236C9.22722 21.7957 9.15458 21.6377 9.09055 21.4985C9.00494 21.3126 8.84087 21.1835 8.65169 21.1531C6.44754 20.7972 4.13059 19.4976 2.45382 17.6766C0.650232 15.7177 -0.206315 13.4297 0.0421188 11.2338C0.295534 8.99352 2.49896 2.15834 3.25536 1.20166H16.1811C16.9375 2.15845 19.1408 8.99374 19.3943 11.2338C19.9202 15.8819 15.3439 20.2888 10.9008 21.1239C10.7105 21.1597 10.5525 21.2899 10.4671 21.4809C10.1739 22.1374 10.1851 28.4353 10.1857 28.7032Z" fill="#3B413A"/>
<path d="M16.1293 16.646C16.8959 15.6644 17.5072 14.7958 17.6154 13.6414C17.6243 13.5459 17.6392 13.2044 17.3397 13.2044C13.0706 11.1766 5.8059 15.8826 2.08717 13.206C1.75934 13.206 1.81061 13.5398 1.82005 13.6414C1.92964 14.8255 2.5583 15.7221 3.35227 16.7263C4.68182 18.4077 6.42708 19.5006 8.36868 19.65C8.69775 19.6753 9.23996 19.6909 9.78363 19.6909C10.3013 19.6909 10.7725 19.6764 11.0441 19.652C13.0273 19.474 14.7984 18.3502 16.1293 16.646Z" fill="#D6E5D8"/>
</svg>
